<?xml version='1.0' encoding='UTF-8'?>
<svg xmlns:inkscape="http://www.inkscape.org/namespaces/inkscape" xmlns:sodipodi="http://sodipodi.sourceforge.net/DTD/sodipodi-0.dtd" xmlns="http://www.w3.org/2000/svg" xmlns:svg="http://www.w3.org/2000/svg" id="Calque_2" version="1.1" viewBox="0 0 390.03 423" sodipodi:docname="k-tm.svg" inkscape:version="1.4.3 (0d15f75, 2025-12-25)">
  <sodipodi:namedview id="namedview1" pagecolor="#ffffff" bordercolor="#000000" borderopacity="0.25" inkscape:showpageshadow="2" inkscape:pageopacity="0.0" inkscape:pagecheckerboard="0" inkscape:deskcolor="#d1d1d1" inkscape:zoom="0.70199731" inkscape:cx="163.81829" inkscape:cy="-116.09731" inkscape:window-width="1728" inkscape:window-height="1084" inkscape:window-x="0" inkscape:window-y="33" inkscape:window-maximized="0" inkscape:current-layer="Calque_2"/>
  <defs id="defs1">
    <style id="style1">
      .st0 {
        font-family: KOLIVO-Neo-Sans-Bold, 'KOLIVO Neo Sans';
        font-size: 63.68px;
        font-weight: 700;
      }
    </style>
  </defs>
  <path id="k_main" d="M 34.208984 0.021484375 C 31.746875 0.10912109 29.288359 0.48039064 26.880859 1.1503906 C 11.030859 5.5503906 -0.06 19.050781 0 38.800781 L 0.2890625 129.67969 C 0.1190625 143.66969 0.120313 145.66922 23.320312 142.94922 L 23.320312 142.96094 C 47.720312 140.10094 69.329609 126.86914 70.099609 98.369141 C 70.669609 77.129141 70.839609 55.709922 69.849609 34.419922 C 68.834609 12.676172 51.44375 -0.59197266 34.208984 0.021484375 z M 276.21094 0.265625 C 268.60469 0.833125 263.06008 2.4655469 256.83008 6.5605469 C 252.02008 9.7205469 247.68914 14.329766 243.61914 21.009766 C 202.65914 117.21977 129.9293 166.72094 35.029297 170.96094 C 33.409297 171.03094 31.790938 171.24016 30.210938 171.66016 C 13.470937 176.07016 0.33 192.16064 0.5 212.14062 C 0.98 227.13063 -0.58 346.87031 0.5 389.57031 C 3.49 431.25031 63.440703 435.1493 69.970703 394.5293 C 71.440703 382.3593 70.410859 256.20922 70.880859 242.19922 C 71.890859 235.30922 90.800391 235.9193 96.150391 233.7793 C 174.23039 220.5893 243.69047 166.42062 286.48047 92.890625 L 286.58984 92.699219 L 286.59961 92.699219 L 286.59961 92.689453 C 300.06961 69.479453 310.36961 45.360156 320.84961 20.410156 C 326.24961 10.100156 319.53094 0.489375 307.96094 0.359375 C 293.48594 0.194375 283.81719 -0.301875 276.21094 0.265625 z M 361.70117 0.98046875 C 361.18239 0.98046875 360.68395 1.1066081 360.20508 1.3613281 C 359.76611 1.5735948 359.40825 1.9358725 359.12891 2.4453125 C 358.88947 2.9122992 358.76953 3.5048558 358.76953 4.2265625 L 358.76953 25.496094 C 358.76953 26.514974 359.0281 27.301622 359.54688 27.853516 C 360.06565 28.405409 360.78333 28.679687 361.70117 28.679688 C 363.61667 28.679687 364.57617 27.61876 364.57617 25.496094 L 364.57617 13.212891 L 370.20117 23.205078 C 370.48051 23.629611 370.78036 23.94789 371.09961 24.160156 C 371.41886 24.32997 371.77867 24.414062 372.17773 24.414062 C 372.6167 24.414062 372.97456 24.32997 373.25391 24.160156 C 373.57316 23.94789 373.873 23.629611 374.15234 23.205078 L 379.7793 13.210938 L 379.7793 25.496094 C 379.7793 26.514974 380.01917 27.301622 380.49805 27.853516 C 381.01683 28.405409 381.75514 28.679687 382.71289 28.679688 C 384.62839 28.679687 385.58594 27.61876 385.58594 25.496094 L 385.58594 4.2265625 C 385.58594 3.1227758 385.28609 2.3180338 384.6875 1.8085938 C 384.12881 1.2567004 383.45047 0.98046875 382.65234 0.98046875 C 381.77441 0.98046875 381.09606 1.1506077 380.61719 1.4902344 C 380.17822 1.7874077 379.73975 2.3379179 379.30078 3.1445312 L 372.20508 16.076172 L 365.05469 3.1445312 C 364.61572 2.3379179 364.15661 1.7874077 363.67773 1.4902344 C 363.23877 1.1506077 362.57911 0.98046875 361.70117 0.98046875 z M 335.96289 1.4257812 C 335.04505 1.4257812 334.32542 1.6800131 333.80664 2.1894531 C 333.32777 2.6564398 333.08984 3.3790421 333.08984 4.3554688 C 333.08984 5.2894421 333.32777 6.0100912 333.80664 6.5195312 C 334.32542 7.0289713 335.04505 7.2832031 335.96289 7.2832031 L 340.99023 7.2832031 L 340.99023 24.986328 C 340.99023 26.175021 341.26944 27.087809 341.82812 27.724609 C 342.42672 28.361409 343.26628 28.679688 344.34375 28.679688 C 345.46112 28.679688 346.29874 28.361409 346.85742 27.724609 C 347.45601 27.087809 347.75391 26.175021 347.75391 24.986328 L 347.75391 7.2832031 L 352.7832 7.2832031 C 353.70104 7.2832031 354.40003 7.0289713 354.87891 6.5195312 C 355.39769 6.0100912 355.65625 5.2894421 355.65625 4.3554688 C 355.65625 3.3790421 355.39769 2.6564398 354.87891 2.1894531 C 354.40003 1.6800131 353.70104 1.4257812 352.7832 1.4257812 L 335.96289 1.4257812 z " inkscape:label="k_main" fill="#172638"/>
  <path id="k_leg" d="M168.5,250.36c-2.94,1.95-6.77,4.04-6.49,8.78.12,2.1,1.34,4.45,2.42,6.17,1.17,1.9,71.46,97.95,91.96,126.26,9.83,13.51,25.29,22.55,41.8,22.42,9.62-.06,27.66-.12,37.15-.17,4.16-.1,4.16.16,6.85-.22,4.62-.84,7.48-4.51,8.47-8.79.93-4.05-.1-8.31-2.5-11.7-17.28-24.48-105.24-142.68-121.41-164.19-2.81-3.74-7.9-5.01-12.07-2.9-.04.02-.08.04-.12.06-16.4,8.38-17.51,8.82-45.9,24.19" inkscape:label="k_leg" fill="#172638"/>
</svg>
